<svg width="149" height="32" viewBox="0 0 149 32" fill="none" xmlns="http://www.w3.org/2000/svg">
<path d="M36.192 18.162L37.974 5.544H46.524L46.164 8.082C46.116 8.43 45.96 8.724 45.696 8.964C45.432 9.192 45.126 9.306 44.778 9.306H42.582L43.356 8.64L43.554 7.254H40.476L40.08 9.99H45.894L45.516 12.726L43.482 15.156L45.084 18.162H42.348L41.808 17.154L40.98 18.162H36.192ZM32.268 12.024L32.7 8.964H31.332L31.584 7.254H32.952L33.168 5.724L32.718 5.202H36.318L36.03 7.254H37.398L37.146 8.964H35.796L35.454 11.322L36.858 11.016L36.606 12.906L35.184 13.212L34.662 16.974C34.602 17.322 34.44 17.61 34.176 17.838C33.912 18.054 33.606 18.162 33.258 18.162H30.036L31.656 16.488L32.016 13.896L30.594 14.202L30.864 12.33L32.268 12.024ZM39.054 17.19L40.764 15.174L39.648 13.068L39.054 17.19ZM39.828 11.7L39.792 12.042H41.844L42.438 13.176L43.392 12.042L43.446 11.7H39.828ZM60.5806 15.624L60.2206 18.162H46.9546L47.3146 15.624H60.5806ZM59.5726 5.202L59.3206 5.742H62.8126L62.6326 7.056H62.1826L62.0746 7.884L60.3646 9.252L62.1106 10.818H59.6986L59.1046 10.26L58.4026 10.818H55.9006L57.9346 9.162L56.3146 7.614H58.5826L59.1586 8.154L59.8786 7.56L59.9506 7.056H58.7446L58.6186 7.344H56.3866L57.1786 5.526L56.8546 5.202H59.5726ZM51.0766 7.362L50.9506 7.506H55.9186L55.5946 9.72C55.5466 10.056 55.3846 10.338 55.1086 10.566C54.8446 10.794 54.5386 10.908 54.1906 10.908H52.6066L53.4346 10.242L53.6686 8.586H49.9966L49.7806 8.838H53.1826L52.9486 10.584H48.2146L48.4126 9.072H47.3866L48.6646 7.362H51.0766ZM52.7146 11.502L52.7686 11.124H56.3326L56.2786 11.502H62.0386L61.8766 12.672H46.8466L47.0086 11.502H52.7146ZM60.7786 14.292L60.6346 15.336H47.3686L47.5126 14.292H60.7786ZM55.0366 5.706H56.2786L56.1166 6.858H54.8566L54.8206 7.2H52.6426L52.6786 6.858H51.3826L51.3466 7.2H49.1866L49.2226 6.858H47.6566L47.8186 5.706H49.4026L49.4206 5.58L49.0426 5.202H51.6346L51.5626 5.706H52.8586L52.8766 5.58L52.4986 5.202H55.1086L55.0366 5.706ZM60.9766 12.978L60.8326 13.986H47.5306L47.6746 12.978H60.9766ZM57.1066 17.172L57.1786 16.65H50.4286L50.3566 17.172H57.1066ZM51.2746 9.882L51.3286 9.468H50.1226L50.0686 9.882H51.2746ZM71.0192 15.696L68.7152 13.734L68.8412 12.87H71.7572L73.2872 14.22L75.1052 13.032L75.1772 12.51H68.8952L69.1292 10.836H78.2372L77.7872 14.094L75.0692 15.768L77.8412 18.162H73.9172L72.7652 17.19L71.1632 18.162H67.2572L71.0192 15.696ZM74.9252 10.368L75.3572 7.236H72.8912L72.2252 10.368H69.2372L70.1192 6.192L69.5612 5.544H78.3992L77.9852 8.568H78.3092L78.9032 7.884L78.5612 10.368H74.9252ZM63.8912 17.838L64.9532 10.332H63.8912L64.1252 8.622H68.1932L67.2572 15.354L68.5892 14.994L68.3372 16.776L63.8912 17.838ZM67.7972 5.544L68.3192 7.938H65.5652L65.0432 5.544H67.7972ZM94.7598 12.204L93.9678 17.856H80.2698L81.0618 12.204H94.7598ZM89.3778 11.7L88.0638 11.178L86.6058 11.7H80.8098L81.0438 9.99H84.5898L84.8238 9.918L83.3118 9.306H80.7918L83.4558 5.634L83.0778 5.202H87.1818L86.6778 5.886H95.6418L95.2638 8.622L91.6458 9.918L91.8618 9.99H95.4078L95.1738 11.7H89.3778ZM85.7958 7.596L88.4058 8.64L91.3218 7.596H85.7958ZM83.5098 14.346H86.2458L86.2998 13.914H83.5638L83.5098 14.346ZM91.4658 16.146L91.5198 15.714H88.7838L88.7298 16.146H91.4658ZM85.9938 16.146L86.0478 15.714H83.3118L83.2578 16.146H85.9938ZM89.0358 13.914L88.9818 14.346H91.7178L91.7718 13.914H89.0358ZM99.6364 16.92L100.842 8.46H97.0444L97.2244 6.732H108.276L107.934 8.46H104.298L103.092 16.92H99.6364ZM120.82 6.732C120.988 6.732 121.144 6.762 121.288 6.822C121.432 6.882 121.552 6.966 121.648 7.074C121.756 7.182 121.828 7.308 121.864 7.452C121.9 7.596 121.894 7.758 121.846 7.938L120.64 16.92H110.956C110.788 16.92 110.632 16.89 110.488 16.83C110.344 16.77 110.218 16.686 110.11 16.578C110.014 16.47 109.948 16.344 109.912 16.2C109.876 16.044 109.882 15.882 109.93 15.714L111.136 6.732H120.82ZM114.25 8.46L113.386 15.192H117.364L118.39 8.46H114.25ZM135.415 6.732L134.731 12.258C134.635 12.606 134.443 12.894 134.155 13.122C133.879 13.35 133.609 13.464 133.345 13.464H127.297L126.775 16.92H123.499L124.705 7.236L124.183 6.732H135.415ZM127.999 8.46L127.639 11.736H131.275L131.797 8.46H127.999ZM143.787 12.474H137.631L137.865 10.764H144.021L144.363 8.37H137.523L137.757 6.678H148.017L146.739 15.696C146.691 16.044 146.529 16.338 146.253 16.578C145.989 16.806 145.689 16.92 145.353 16.92H136.317L136.569 15.21H143.391L143.787 12.474Z" fill="url(#paint0_linear_692_1128)"/>
<g filter="url(#filter0_d_692_1128)">
<rect x="16" y="19.5858" width="10.728" height="10.728" rx="5.364" transform="rotate(-135 16 19.5858)" stroke="#00AAFF" stroke-width="2" stroke-linejoin="bevel" stroke-dasharray="6 9"/>
<rect x="16" y="19.5858" width="10.728" height="10.728" rx="5.364" transform="rotate(-135 16 19.5858)" stroke="#00AAFF" stroke-opacity="0.2" stroke-width="2" stroke-linecap="square" stroke-linejoin="bevel"/>
<rect x="16" y="17.6464" width="7.98533" height="7.98533" rx="3.99266" transform="rotate(-135 16 17.6464)" fill="#00AAFF" fill-opacity="0.1" stroke="#00AAFF" stroke-width="0.5"/>
<rect x="13" y="12" width="4.24266" height="4.24266" rx="2.12133" transform="rotate(-45 13 12)" fill="#BFEAFF"/>
<path d="M16.0002 -0.000173234L4 12L16.0002 24.0002L28.0003 12L16.0002 -0.000173234Z" fill="url(#paint1_radial_692_1128)"/>
</g>
<defs>
<filter id="filter0_d_692_1128" x="0" y="0" width="32.0005" height="32" filterUnits="userSpaceOnUse" color-interpolation-filters="sRGB">
<feFlood flood-opacity="0" result="BackgroundImageFix"/>
<feColorMatrix in="SourceAlpha" type="matrix" values="0 0 0 0 0 0 0 0 0 0 0 0 0 0 0 0 0 0 127 0" result="hardAlpha"/>
<feOffset dy="4"/>
<feGaussianBlur stdDeviation="2"/>
<feComposite in2="hardAlpha" operator="out"/>
<feColorMatrix type="matrix" values="0 0 0 0 0 0 0 0 0 0 0 0 0 0 0 0 0 0 0.25 0"/>
<feBlend mode="normal" in2="BackgroundImageFix" result="effect1_dropShadow_692_1128"/>
<feBlend mode="normal" in="SourceGraphic" in2="effect1_dropShadow_692_1128" result="shape"/>
</filter>
<linearGradient id="paint0_linear_692_1128" x1="89.5" y1="0" x2="89.5" y2="24" gradientUnits="userSpaceOnUse">
<stop offset="0.168521" stop-color="white"/>
<stop offset="0.839686" stop-color="#308FFF"/>
</linearGradient>
<radialGradient id="paint1_radial_692_1128" cx="0" cy="0" r="1" gradientUnits="userSpaceOnUse" gradientTransform="translate(15.9814 12.0188) rotate(-135) scale(9.43435)">
<stop offset="0.0381" stop-color="white"/>
<stop offset="0.1359" stop-color="#00D5FF" stop-opacity="0.6"/>
<stop offset="0.2643" stop-color="#006AFF" stop-opacity="0.5"/>
<stop offset="0.4568" stop-color="#0935CC" stop-opacity="0.3238"/>
<stop offset="0.6172" stop-color="#100EA7" stop-opacity="0.177"/>
<stop offset="0.7013" stop-color="#120099" stop-opacity="0.1"/>
<stop offset="0.746" stop-color="#100089" stop-opacity="0.085"/>
<stop offset="0.8334" stop-color="#0B005F" stop-opacity="0.0558"/>
<stop offset="0.954" stop-color="#03001B" stop-opacity="0.0154"/>
<stop offset="1" stop-opacity="0"/>
</radialGradient>
</defs>
</svg>
