<svg width="13" height="13" viewBox="0 0 13 13" fill="none" xmlns="http://www.w3.org/2000/svg">
<path d="M5.66667 0C8.79633 0 11.3333 2.537 11.3333 5.66667C11.3333 7.01167 10.8647 8.24733 10.082 9.219C10.1466 9.23142 10.206 9.26302 10.2523 9.30967L12.3737 11.431C12.4362 11.4935 12.4713 11.5783 12.4713 11.6667C12.4713 11.7551 12.4362 11.8398 12.3737 11.9023L11.9023 12.3737C11.8398 12.4362 11.7551 12.4713 11.6667 12.4713C11.5783 12.4713 11.4935 12.4362 11.431 12.3737L9.30967 10.2523C9.26299 10.2059 9.23119 10.1466 9.21833 10.082C8.21276 10.8937 6.95895 11.3354 5.66667 11.3333C2.537 11.3333 -1.5625e-08 8.79633 0 5.66667C1.5625e-08 2.537 2.537 0 5.66667 0ZM5.66667 1.33333C3.27333 1.33333 1.33333 3.27333 1.33333 5.66667C1.33333 8.06 3.27333 10 5.66667 10C8.06 10 10 8.06 10 5.66667C10 3.27333 8.06 1.33333 5.66667 1.33333Z" fill="#9EC2E9"/>
</svg>
